<svg width="24" height="24" viewBox="0 0 24 24" fill="none" xmlns="http://www.w3.org/2000/svg">
<g id="Icon/24/book">
<path id="Vector" fill-rule="evenodd" clip-rule="evenodd" d="M0 2.625C0 2.00368 0.503679 1.5 1.125 1.5H7.50429C9.34518 1.5 10.9797 2.38437 12.0059 3.75159C13.032 2.38443 14.6665 1.5 16.5075 1.5H22.875C23.4963 1.5 24 2.00368 24 2.625V18.375C24 18.9963 23.4963 19.5 22.875 19.5H16.1139C15.2189 19.5 14.3604 19.8556 13.7275 20.4885L12.7955 21.4204C12.3562 21.8598 11.6438 21.8598 11.2045 21.4204L10.2725 20.4885C9.63959 19.8556 8.78115 19.5 7.88604 19.5H1.125C0.503679 19.5 0 18.9963 0 18.375V2.625ZM13.1325 7.125C13.1325 5.26104 14.6435 3.75 16.5075 3.75H21.75V17.25H16.1139C15.0489 17.25 14.0151 17.5521 13.1269 18.1086L13.1325 7.125ZM10.8769 18.111L10.8825 10.5011L10.8793 7.12179C10.8775 5.25907 9.36699 3.75 7.50429 3.75H2.25V17.25H7.88604C8.95254 17.25 9.98781 17.5528 10.8769 18.111Z" fill="#4F3422"/>
</g>
</svg>
