<svg width="24" height="24" viewBox="0 0 24 24" fill="none" xmlns="http://www.w3.org/2000/svg">
<g id="Icon/24/Calendar">
<g id="Calendar">
<path id="Rectangle 2 (Stroke)" fill-rule="evenodd" clip-rule="evenodd" d="M2 8.5C2 5.18629 4.68629 2.5 8 2.5H16C19.3137 2.5 22 5.18629 22 8.5V16.5C22 19.8137 19.3137 22.5 16 22.5H8C4.68629 22.5 2 19.8137 2 16.5V8.5ZM8 4.5C5.79086 4.5 4 6.29086 4 8.5V16.5C4 18.7091 5.79086 20.5 8 20.5H16C18.2091 20.5 20 18.7091 20 16.5V8.5C20 6.29086 18.2091 4.5 16 4.5H8Z" fill="#4F3422"/>
<path id="Line (Stroke)" fill-rule="evenodd" clip-rule="evenodd" d="M21 9.5H3V7.5H21V9.5Z" fill="#4F3422"/>
<path id="Line (Stroke)_2" fill-rule="evenodd" clip-rule="evenodd" d="M16.5 1C15.9477 1 15.5 1.44772 15.5 2L15.5 5C15.5 5.55228 15.9477 6 16.5 6C17.0523 6 17.5 5.55228 17.5 5L17.5 2C17.5 1.44772 17.0523 1 16.5 1Z" fill="#4F3422"/>
<path id="Line (Stroke)_3" fill-rule="evenodd" clip-rule="evenodd" d="M7.5 1C6.94772 1 6.5 1.44772 6.5 2L6.5 5C6.5 5.55228 6.94772 6 7.5 6C8.05228 6 8.5 5.55228 8.5 5L8.5 2C8.5 1.44772 8.05228 1 7.5 1Z" fill="#4F3422"/>
<g id="Group 220">
<g id="Group 218">
<path id="Line (Stroke)_4" fill-rule="evenodd" clip-rule="evenodd" d="M5.5 12.5C5.5 13.0523 5.94772 13.5 6.5 13.5H7.5C8.05228 13.5 8.5 13.0523 8.5 12.5C8.5 11.9477 8.05228 11.5 7.5 11.5H6.5C5.94772 11.5 5.5 11.9477 5.5 12.5Z" fill="#4F3422"/>
<path id="Line (Stroke)_5" fill-rule="evenodd" clip-rule="evenodd" d="M10.5 12.5C10.5 13.0523 10.9477 13.5 11.5 13.5H12.5C13.0523 13.5 13.5 13.0523 13.5 12.5C13.5 11.9477 13.0523 11.5 12.5 11.5H11.5C10.9477 11.5 10.5 11.9477 10.5 12.5Z" fill="#4F3422"/>
<path id="Line (Stroke)_6" fill-rule="evenodd" clip-rule="evenodd" d="M15.5 12.5C15.5 13.0523 15.9477 13.5 16.5 13.5H17.5C18.0523 13.5 18.5 13.0523 18.5 12.5C18.5 11.9477 18.0523 11.5 17.5 11.5H16.5C15.9477 11.5 15.5 11.9477 15.5 12.5Z" fill="#4F3422"/>
</g>
<g id="Group 219">
<path id="Line (Stroke)_7" fill-rule="evenodd" clip-rule="evenodd" d="M5.5 16.5C5.5 17.0523 5.94772 17.5 6.5 17.5H7.5C8.05228 17.5 8.5 17.0523 8.5 16.5C8.5 15.9477 8.05228 15.5 7.5 15.5H6.5C5.94772 15.5 5.5 15.9477 5.5 16.5Z" fill="#4F3422"/>
<path id="Line (Stroke)_8" fill-rule="evenodd" clip-rule="evenodd" d="M10.5 16.5C10.5 17.0523 10.9477 17.5 11.5 17.5H12.5C13.0523 17.5 13.5 17.0523 13.5 16.5C13.5 15.9477 13.0523 15.5 12.5 15.5H11.5C10.9477 15.5 10.5 15.9477 10.5 16.5Z" fill="#4F3422"/>
<path id="Line (Stroke)_9" fill-rule="evenodd" clip-rule="evenodd" d="M15.5 16.5C15.5 17.0523 15.9477 17.5 16.5 17.5H17.5C18.0523 17.5 18.5 17.0523 18.5 16.5C18.5 15.9477 18.0523 15.5 17.5 15.5H16.5C15.9477 15.5 15.5 15.9477 15.5 16.5Z" fill="#4F3422"/>
</g>
</g>
</g>
</g>
</svg>
