<svg width="24" height="24" viewBox="0 0 24 24" fill="none" xmlns="http://www.w3.org/2000/svg">
<g id="Icon/24/camera">
<g id="Group 20487">
<path id="Rectangle 74 (Stroke)" fill-rule="evenodd" clip-rule="evenodd" d="M10.4782 4C9.67813 4 8.95506 4.47679 8.6399 5.21216L8.33022 5.93475C7.92326 6.88432 6.98956 7.5 5.95645 7.5C4.32365 7.5 3 8.82365 3 10.4565V15.5C3 17.7091 4.79086 19.5 7 19.5H17C19.2091 19.5 21 17.7091 21 15.5V10.4565C21 8.82365 19.6764 7.5 18.0435 7.5C17.0104 7.5 16.0767 6.88432 15.6698 5.93475L15.3601 5.21216C15.0449 4.47679 14.3219 4 13.5218 4H10.4782ZM6.80161 4.42432C7.43192 2.95359 8.87808 2 10.4782 2H13.5218C15.1219 2 16.5681 2.95359 17.1984 4.42432L17.5081 5.14691C17.5999 5.36111 17.8105 5.5 18.0435 5.5C20.7809 5.5 23 7.71908 23 10.4565V15.5C23 18.8137 20.3137 21.5 17 21.5H7C3.68629 21.5 1 18.8137 1 15.5V10.4565C1 7.71908 3.21908 5.5 5.95645 5.5C6.1895 5.5 6.40013 5.36111 6.49193 5.14691L6.80161 4.42432Z" fill="#4F3422"/>
<path id="Ellipse 33 (Stroke)" fill-rule="evenodd" clip-rule="evenodd" d="M12 10.5C13.1046 10.5 14 11.3954 14 12.5C14 13.6046 13.1046 14.5 12 14.5C10.8954 14.5 10 13.6046 10 12.5C10 11.3954 10.8954 10.5 12 10.5ZM16 12.5C16 10.2909 14.2091 8.5 12 8.5C9.79086 8.5 8 10.2909 8 12.5C8 14.7091 9.79086 16.5 12 16.5C14.2091 16.5 16 14.7091 16 12.5Z" fill="#4F3422"/>
</g>
</g>
</svg>
