<svg width="24" height="24" viewBox="0 0 24 24" fill="none" xmlns="http://www.w3.org/2000/svg">
<g id="Icon/24/Credit card">
<g id="Credit card">
<path id="Rectangle 2 (Stroke)" fill-rule="evenodd" clip-rule="evenodd" d="M1 9C1 5.68629 3.68629 3 7 3H17C20.3137 3 23 5.68629 23 9V15C23 18.3137 20.3137 21 17 21H7C3.68629 21 1 18.3137 1 15V9ZM7 5C4.79086 5 3 6.79086 3 9V15C3 17.2091 4.79086 19 7 19H17C19.2091 19 21 17.2091 21 15V9C21 6.79086 19.2091 5 17 5H7Z" fill="#4F3422"/>
<path id="Line (Stroke)" fill-rule="evenodd" clip-rule="evenodd" d="M1 9.5C1 8.94772 1.44772 8.5 2 8.5H22C22.5523 8.5 23 8.94772 23 9.5C23 10.0523 22.5523 10.5 22 10.5H2C1.44772 10.5 1 10.0523 1 9.5Z" fill="#4F3422"/>
<path id="Line (Stroke)_2" fill-rule="evenodd" clip-rule="evenodd" d="M5 15.5C5 14.9477 5.44772 14.5 6 14.5H11C11.5523 14.5 12 14.9477 12 15.5C12 16.0523 11.5523 16.5 11 16.5H6C5.44772 16.5 5 16.0523 5 15.5Z" fill="#4F3422"/>
</g>
</g>
</svg>
