<svg width="24" height="24" viewBox="0 0 24 24" fill="none" xmlns="http://www.w3.org/2000/svg">
<g id="Icon/24/Document 2">
<g id="Document 2">
<path id="Rectangle 74 (Stroke)" fill-rule="evenodd" clip-rule="evenodd" d="M8 3C6.34315 3 5 4.34315 5 6V18C5 19.6569 6.34315 21 8 21H16C17.6569 21 19 19.6569 19 18V8.7241C19 8.49016 18.918 8.26363 18.7682 8.08392L14.8315 3.35982C14.6415 3.13182 14.36 3 14.0633 3H8ZM3 6C3 3.23858 5.23858 1 8 1H14.0633C14.9536 1 15.7979 1.39547 16.3679 2.07945L20.3047 6.80355C20.754 7.34269 21 8.02229 21 8.7241V18C21 20.7614 18.7614 23 16 23H8C5.23858 23 3 20.7614 3 18V6Z" fill="#4F3422"/>
<path id="Vector 139 (Stroke)" fill-rule="evenodd" clip-rule="evenodd" d="M15 1.5C15.5523 1.5 16 1.94772 16 2.5V6C16 6.55228 16.4477 7 17 7H19.5C20.0523 7 20.5 7.44772 20.5 8C20.5 8.55228 20.0523 9 19.5 9H17C15.3431 9 14 7.65685 14 6V2.5C14 1.94772 14.4477 1.5 15 1.5Z" fill="#4F3422"/>
<path id="Vector 133 (Stroke)" fill-rule="evenodd" clip-rule="evenodd" d="M7 12C7 11.4477 7.44772 11 8 11H16C16.5523 11 17 11.4477 17 12C17 12.5523 16.5523 13 16 13H8C7.44772 13 7 12.5523 7 12Z" fill="#4F3422"/>
<path id="Vector 134 (Stroke)" fill-rule="evenodd" clip-rule="evenodd" d="M7 17C7 16.4477 7.44772 16 8 16H12C12.5523 16 13 16.4477 13 17C13 17.5523 12.5523 18 12 18H8C7.44772 18 7 17.5523 7 17Z" fill="#4F3422"/>
</g>
</g>
</svg>
