<svg width="24" height="24" viewBox="0 0 24 24" fill="none" xmlns="http://www.w3.org/2000/svg">
<g id="Icon/24/Download 2">
<g id="Download 2">
<path id="Rectangle 74 (Stroke)" fill-rule="evenodd" clip-rule="evenodd" d="M18 7C20.7614 7 23 9.23858 23 12L23 17C23 19.7614 20.7614 22 18 22L6 22C3.23858 22 0.999999 19.7614 1 17L1 12C1 9.23858 3.23858 7 6 7L8 7C8.55229 7 9 7.44771 9 8C9 8.55228 8.55229 9 8 9L6 9C4.34315 9 3 10.3431 3 12L3 17C3 18.6569 4.34314 20 6 20L18 20C19.6569 20 21 18.6569 21 17L21 12C21 10.3431 19.6569 9 18 9L16 9C15.4477 9 15 8.55228 15 8C15 7.44771 15.4477 7 16 7L18 7Z" fill="#4F3422"/>
<g id="Arrow">
<path id="Vector 140 (Stroke)" fill-rule="evenodd" clip-rule="evenodd" d="M10.5858 16C11.3668 16.7811 12.6332 16.7811 13.4142 16L15.7071 13.7071C16.0976 13.3166 16.0976 12.6834 15.7071 12.2929C15.3166 11.9024 14.6834 11.9024 14.2929 12.2929L12 14.5858L9.70711 12.2929C9.31658 11.9024 8.68342 11.9024 8.29289 12.2929C7.90237 12.6834 7.90237 13.3166 8.29289 13.7071L10.5858 16Z" fill="#4F3422"/>
<path id="Vector 141 (Stroke)" fill-rule="evenodd" clip-rule="evenodd" d="M12 2C11.4477 2 11 2.44772 11 3L11 15C11 15.5523 11.4477 16 12 16C12.5523 16 13 15.5523 13 15L13 3C13 2.44772 12.5523 2 12 2Z" fill="#4F3422"/>
</g>
</g>
</g>
</svg>
