<svg width="24" height="24" viewBox="0 0 24 24" fill="none" xmlns="http://www.w3.org/2000/svg">
<g id="Icon/24/Edit 1">
<path id="Rectangle 74 (Stroke)" fill-rule="evenodd" clip-rule="evenodd" d="M14.1394 3.00476C15.3101 1.8323 17.2088 1.83158 18.3804 3.00316L20.8723 5.49501C22.0338 6.65659 22.0459 8.53706 20.8993 9.71346L11.6662 19.1867C10.9136 19.9588 9.88145 20.3942 8.80366 20.3942L6.05151 20.3941C4.63012 20.394 3.495 19.2091 3.55478 17.7879L3.67293 14.9789C3.71506 13.9773 4.13136 13.0279 4.83945 12.3188L14.1394 3.00476ZM16.9673 4.41844C16.5767 4.02792 15.9438 4.02816 15.5536 4.41897L6.25366 13.733C5.89962 14.0876 5.69147 14.5622 5.67041 15.0631L5.55225 17.8721C5.5403 18.1563 5.76732 18.3933 6.0516 18.3933L8.80374 18.3934C9.34264 18.3935 9.85873 18.1758 10.235 17.7897L19.4681 8.31644C19.8503 7.92431 19.8463 7.29749 19.4591 6.91029L16.9673 4.41844Z" fill="#4F3422"/>
<path id="Line (Stroke)" fill-rule="evenodd" clip-rule="evenodd" d="M18.3955 11.6502C18.0052 12.041 17.3723 12.0413 16.9818 11.6507L12.0321 6.70099C11.6415 6.31047 11.6413 5.67707 12.0315 5.28625C12.4217 4.89543 13.0547 4.89519 13.4452 5.28571L18.3949 10.2355C18.7855 10.626 18.7857 11.2594 18.3955 11.6502Z" fill="#4F3422"/>
<path id="Line (Stroke)_2" fill-rule="evenodd" clip-rule="evenodd" d="M22.3168 19.3206C22.3168 19.8731 21.8693 20.321 21.3172 20.321H15.1955C14.6434 20.321 14.1959 19.8731 14.1959 19.3206C14.1959 18.7681 14.6434 18.3202 15.1955 18.3202H21.3172C21.8693 18.3202 22.3168 18.7681 22.3168 19.3206Z" fill="#4F3422"/>
</g>
</svg>
