<svg width="24" height="24" viewBox="0 0 24 24" fill="none" xmlns="http://www.w3.org/2000/svg">
<g id="Icon/24/Eye">
<g id="Eye">
<path id="Intersect (Stroke)" fill-rule="evenodd" clip-rule="evenodd" d="M12 7C8.58274 7 5.60871 8.89624 4.07795 11.6953C3.97402 11.8853 3.97402 12.1146 4.07794 12.3046C5.60869 15.1037 8.58276 17 12 17C15.4173 17 18.3913 15.1038 19.9221 12.3047C20.026 12.1147 20.026 11.8854 19.9221 11.6954C18.3913 8.8963 15.4172 7 12 7ZM2.32322 10.7356C4.1913 7.31981 7.82397 5 12 5C16.176 5 19.8088 7.31988 21.6768 10.7358C22.1077 11.5238 22.1077 12.4764 21.6768 13.2644C19.8087 16.6802 16.176 19 12 19C7.82397 19 4.19125 16.6801 2.3232 13.2642C1.89226 12.4762 1.89227 11.5236 2.32322 10.7356Z" fill="#4F3422"/>
<path id="Ellipse 44 (Stroke)" fill-rule="evenodd" clip-rule="evenodd" d="M12 10C10.8954 10 10 10.8954 10 12C10 13.1046 10.8954 14 12 14C13.1046 14 14 13.1046 14 12C14 10.8954 13.1046 10 12 10ZM8 12C8 9.79086 9.79086 8 12 8C14.2091 8 16 9.79086 16 12C16 14.2091 14.2091 16 12 16C9.79086 16 8 14.2091 8 12Z" fill="#4F3422"/>
</g>
</g>
</svg>
