<svg width="24" height="24" viewBox="0 0 24 24" fill="none" xmlns="http://www.w3.org/2000/svg">
<g id="Icon/24/Filter">
<g id="Filter">
<path id="Line (Stroke)" fill-rule="evenodd" clip-rule="evenodd" d="M10 7C10 6.44772 10.4477 6 11 6L21 6C21.5523 6 22 6.44772 22 7C22 7.55229 21.5523 8 21 8L11 8C10.4477 8 10 7.55228 10 7Z" fill="#4F3422"/>
<path id="Ellipse 33 (Stroke)" fill-rule="evenodd" clip-rule="evenodd" d="M5 6C5.55228 6 6 6.44772 6 7C6 7.55228 5.55228 8 5 8C4.44772 8 4 7.55228 4 7C4 6.44772 4.44772 6 5 6ZM8 7C8 5.34315 6.65685 4 5 4C3.34315 4 2 5.34315 2 7C2 8.65685 3.34315 10 5 10C6.65685 10 8 8.65685 8 7Z" fill="#4F3422"/>
<g id="Filter_2">
<path id="Line (Stroke)_2" fill-rule="evenodd" clip-rule="evenodd" d="M14 17C14 16.4477 13.5523 16 13 16L3 16C2.44772 16 2 16.4477 2 17C2 17.5523 2.44772 18 3 18L13 18C13.5523 18 14 17.5523 14 17Z" fill="#4F3422"/>
<path id="Ellipse 33 (Stroke)_2" fill-rule="evenodd" clip-rule="evenodd" d="M19 16C18.4477 16 18 16.4477 18 17C18 17.5523 18.4477 18 19 18C19.5523 18 20 17.5523 20 17C20 16.4477 19.5523 16 19 16ZM16 17C16 15.3431 17.3431 14 19 14C20.6569 14 22 15.3431 22 17C22 18.6569 20.6569 20 19 20C17.3431 20 16 18.6569 16 17Z" fill="#4F3422"/>
</g>
</g>
</g>
</svg>
