<svg width="24" height="24" viewBox="0 0 24 24" fill="none" xmlns="http://www.w3.org/2000/svg">
<g id="Icon/24/image">
<g id="Group 20488">
<path id="Rectangle 74 (Stroke)" fill-rule="evenodd" clip-rule="evenodd" d="M1 7C1 3.68629 3.68629 1 7 1H17C20.3137 1 23 3.68629 23 7V17C23 20.3137 20.3137 23 17 23H7C3.68629 23 1 20.3137 1 17V7ZM7 3C4.79086 3 3 4.79086 3 7V17C3 19.2091 4.79086 21 7 21H17C19.2091 21 21 19.2091 21 17V7C21 4.79086 19.2091 3 17 3H7Z" fill="#4F3422"/>
<path id="Vector 142 (Stroke)" fill-rule="evenodd" clip-rule="evenodd" d="M16.6227 12.8206C16.3048 12.5557 15.8374 12.5769 15.5449 12.8695L10.5557 17.8586C9.69656 18.7178 8.3036 18.7178 7.44444 17.8586L6.37119 16.7853C6.09466 16.5088 5.65874 16.4727 5.34051 16.7L3.08132 18.3138C2.6319 18.6348 2.00735 18.5307 1.68634 18.0813C1.36534 17.6318 1.46943 17.0073 1.91884 16.6863L4.17804 15.0726C5.29183 14.277 6.81755 14.4033 7.7854 15.3711L8.85866 16.4444C8.93676 16.5225 9.06339 16.5225 9.1415 16.4444L14.1306 11.4552C15.1546 10.4312 16.7905 10.357 17.9031 11.2841L22.6403 15.2318C23.0645 15.5854 23.1219 16.2159 22.7683 16.6402C22.4147 17.0645 21.7842 17.1218 21.3599 16.7682L16.6227 12.8206Z" fill="#4F3422"/>
<path id="Ellipse 33 (Stroke)" fill-rule="evenodd" clip-rule="evenodd" d="M8 7C8.55228 7 9 7.44772 9 8C9 8.55228 8.55228 9 8 9C7.44772 9 7 8.55228 7 8C7 7.44772 7.44772 7 8 7ZM11 8C11 6.34315 9.65685 5 8 5C6.34315 5 5 6.34315 5 8C5 9.65685 6.34315 11 8 11C9.65685 11 11 9.65685 11 8Z" fill="#4F3422"/>
</g>
</g>
</svg>
