<svg width="24" height="24" viewBox="0 0 24 24" fill="none" xmlns="http://www.w3.org/2000/svg">
<g id="Icon/24/Key">
<g id="Key">
<path id="Rectangle 74 (Stroke)" fill-rule="evenodd" clip-rule="evenodd" d="M1 7C1 3.68629 3.68629 1 7 1H17C20.3137 1 23 3.68629 23 7V17C23 20.3137 20.3137 23 17 23H7C3.68629 23 1 20.3137 1 17V7ZM7 3C4.79086 3 3 4.79086 3 7V17C3 19.2091 4.79086 21 7 21H17C19.2091 21 21 19.2091 21 17V7C21 4.79086 19.2091 3 17 3H7Z" fill="#4F3422"/>
<g id="Group 214">
<path id="Line (Stroke)" fill-rule="evenodd" clip-rule="evenodd" d="M9.5 12.5C9.5 11.9477 9.94772 11.5 10.5 11.5L17.5 11.5C18.0523 11.5 18.5 11.9477 18.5 12.5C18.5 13.0523 18.0523 13.5 17.5 13.5L10.5 13.5C9.94772 13.5 9.5 13.0523 9.5 12.5Z" fill="#4F3422"/>
<g id="Group 215">
<path id="Line (Stroke)_2" fill-rule="evenodd" clip-rule="evenodd" d="M17.5 13.5C16.9477 13.5 16.5 13.0523 16.5 12.5L16.5 10.5C16.5 9.94772 16.9477 9.5 17.5 9.5C18.0523 9.5 18.5 9.94772 18.5 10.5L18.5 12.5C18.5 13.0523 18.0523 13.5 17.5 13.5Z" fill="#4F3422"/>
<path id="Line (Stroke)_3" fill-rule="evenodd" clip-rule="evenodd" d="M15 13.5C15.5523 13.5 16 13.0523 16 12.5L16 10.5C16 9.94772 15.5523 9.5 15 9.5C14.4477 9.5 14 9.94772 14 10.5L14 12.5C14 13.0523 14.4477 13.5 15 13.5Z" fill="#4F3422"/>
</g>
<path id="Ellipse 33 (Stroke)" fill-rule="evenodd" clip-rule="evenodd" d="M8.5 11.5C9.05228 11.5 9.5 11.9477 9.5 12.5C9.5 13.0523 9.05228 13.5 8.5 13.5C7.94772 13.5 7.5 13.0523 7.5 12.5C7.5 11.9477 7.94772 11.5 8.5 11.5ZM11.5 12.5C11.5 10.8431 10.1569 9.5 8.5 9.5C6.84315 9.5 5.5 10.8431 5.5 12.5C5.5 14.1569 6.84315 15.5 8.5 15.5C10.1569 15.5 11.5 14.1569 11.5 12.5Z" fill="#4F3422"/>
</g>
</g>
</g>
</svg>
