<svg width="24" height="24" viewBox="0 0 24 24" fill="none" xmlns="http://www.w3.org/2000/svg">
<g id="Icon/24Layers">
<path id="Vector (Stroke)" fill-rule="evenodd" clip-rule="evenodd" d="M13.7626 3.46175C12.6668 2.84608 11.3332 2.84608 10.2374 3.46175L4.20075 6.85331C3.93308 7.00369 3.93309 7.39741 4.20074 7.54778L10.2374 10.9393C11.3332 11.555 12.6668 11.555 13.7626 10.9393L19.7993 7.54778C20.0669 7.3974 20.0669 7.00369 19.7993 6.85331L13.7626 3.46175ZM9.25773 1.7181C10.9619 0.760631 13.0381 0.760633 14.7423 1.71811L20.7789 5.10967C22.407 6.02441 22.407 8.37669 20.7789 9.29143L20.095 9.67569L20.327 9.80121L20.7789 10.0551C22.407 10.9698 22.407 13.3221 20.7789 14.2369L20.2181 14.5519L20.5625 14.7253C22.2747 15.5872 22.3286 18.0197 20.6583 18.9581L14.7423 22.2819C13.0381 23.2394 10.9619 23.2394 9.25772 22.2819L3.42798 19.0066C1.72941 18.0522 1.82115 15.5658 3.5889 14.7423L3.87959 14.6068L3.22111 14.2369C1.59296 13.3221 1.59297 10.9698 3.22111 10.0551L3.66247 9.80713L3.89845 9.67199L3.22111 9.29143C1.59296 8.37669 1.59297 6.0244 3.22111 5.10966L9.25773 1.7181ZM5.92993 10.8133L4.64568 11.5488L4.20075 11.7988C3.93308 11.9491 3.93309 12.3428 4.20074 12.4932L10.2374 15.8848C11.3332 16.5005 12.6668 16.5005 13.7626 15.8848L19.7993 12.4932C20.0669 12.3428 20.0669 11.9491 19.7993 11.7988L19.3613 11.5527L18.033 10.8342L14.7423 12.683C13.0381 13.6405 10.9619 13.6405 9.25772 12.683L5.92993 10.8133ZM6.0265 15.813L4.43349 16.5552C4.14468 16.6897 4.12738 17.1055 4.40762 17.2629L10.2374 20.5382C11.3332 21.1539 12.6668 21.1539 13.7626 20.5382L19.6787 17.2144C19.9538 17.0598 19.9437 16.6529 19.6633 16.5117L18.1161 15.7329L14.7423 17.6284C13.0381 18.5859 10.9619 18.5859 9.25772 17.6284L6.0265 15.813Z" fill="#4F3422"/>
</g>
</svg>
