<svg width="24" height="24" viewBox="0 0 24 24" fill="none" xmlns="http://www.w3.org/2000/svg">
<g id="Icon/24/logout">
<g id="Login">
<path id="Rectangle 74 (Stroke)" fill-rule="evenodd" clip-rule="evenodd" d="M7 6C7 3.23858 9.23858 1 12 1H17C19.7614 1 22 3.23858 22 6V18C22 20.7614 19.7614 23 17 23H12C9.23858 23 7 20.7614 7 18V16C7 15.4477 7.44772 15 8 15C8.55228 15 9 15.4477 9 16V18C9 19.6569 10.3431 21 12 21H17C18.6569 21 20 19.6569 20 18V6C20 4.34315 18.6569 3 17 3H12C10.3431 3 9 4.34315 9 6V8C9 8.55228 8.55228 9 8 9C7.44772 9 7 8.55228 7 8V6Z" fill="#4F3422"/>
<g id="Arrow">
<path id="Vector 140 (Stroke)" fill-rule="evenodd" clip-rule="evenodd" d="M16 13.4142C16.7811 12.6332 16.7811 11.3668 16 10.5858L13.7071 8.29289C13.3166 7.90237 12.6834 7.90237 12.2929 8.29289C11.9024 8.68342 11.9024 9.31658 12.2929 9.70711L14.5858 12L12.2929 14.2929C11.9024 14.6834 11.9024 15.3166 12.2929 15.7071C12.6834 16.0976 13.3166 16.0976 13.7071 15.7071L16 13.4142Z" fill="#4F3422"/>
<path id="Vector 141 (Stroke)" fill-rule="evenodd" clip-rule="evenodd" d="M2 12C2 12.5523 2.44772 13 3 13L15 13C15.5523 13 16 12.5523 16 12C16 11.4477 15.5523 11 15 11L3 11C2.44772 11 2 11.4477 2 12Z" fill="#4F3422"/>
</g>
</g>
</g>
</svg>
