<svg width="24" height="24" viewBox="0 0 24 24" fill="none" xmlns="http://www.w3.org/2000/svg">
<g id="Icon/24/Message square">
<g id="message square">
<path id="Union (Stroke)" fill-rule="evenodd" clip-rule="evenodd" d="M7 4C4.79086 4 3 5.79086 3 8V20.9194L5.82748 18.6574C6.35942 18.2318 7.02035 18 7.70156 18H17C19.2091 18 21 16.2091 21 14V8C21 5.79086 19.2091 4 17 4H7ZM1 8C1 4.68629 3.68629 2 7 2H17C20.3137 2 23 4.68629 23 8V14C23 17.3137 20.3137 20 17 20H7.70156C7.47449 20 7.25418 20.0773 7.07687 20.2191L4.24939 22.4811C2.93986 23.5287 1 22.5964 1 20.9194V8Z" fill="#4F3422"/>
<g id="Dots">
<path id="Ellipse 37" d="M8.29999 11.0498C8.29999 11.7402 7.74034 12.2998 7.04999 12.2998C6.35963 12.2998 5.79999 11.7402 5.79999 11.0498C5.79999 10.3594 6.35963 9.7998 7.04999 9.7998C7.74034 9.7998 8.29999 10.3594 8.29999 11.0498Z" fill="#4F3422"/>
<path id="Ellipse 38" d="M13.3 11.0498C13.3 11.7402 12.7403 12.2998 12.05 12.2998C11.3596 12.2998 10.8 11.7402 10.8 11.0498C10.8 10.3594 11.3596 9.7998 12.05 9.7998C12.7403 9.7998 13.3 10.3594 13.3 11.0498Z" fill="#4F3422"/>
<path id="Ellipse 39" d="M18.3 11.0498C18.3 11.7402 17.7403 12.2998 17.05 12.2998C16.3596 12.2998 15.8 11.7402 15.8 11.0498C15.8 10.3594 16.3596 9.7998 17.05 9.7998C17.7403 9.7998 18.3 10.3594 18.3 11.0498Z" fill="#4F3422"/>
</g>
</g>
</g>
</svg>
