<svg width="24" height="24" viewBox="0 0 24 24" fill="none" xmlns="http://www.w3.org/2000/svg">
<g id="Icon/24/Notification">
<g id="Bell">
<path id="Union (Stroke)" fill-rule="evenodd" clip-rule="evenodd" d="M12 2.5C9.02245 2.5 6.6087 4.91375 6.6087 7.89125V10.1777C6.6087 10.9433 6.36397 11.6186 6.07741 12.1876C5.8552 12.6289 5.57565 13.0637 5.33567 13.4369C5.27567 13.5302 5.21815 13.6197 5.16461 13.7045C4.92276 14.0874 4.78265 14.5404 4.78265 15.0293C4.78265 16.2367 5.63989 17.2376 6.78954 17.397C8.43692 17.6254 10.4488 17.8479 12 17.8479C13.5511 17.8479 15.563 17.6254 17.2104 17.397C18.3601 17.2376 19.2173 16.2367 19.2173 15.0293C19.2173 14.5404 19.0772 14.0874 18.8353 13.7045C18.7818 13.6197 18.7243 13.5302 18.6643 13.4369C18.4243 13.0636 18.1447 12.6289 17.9225 12.1876C17.6359 11.6185 17.3912 10.9433 17.3912 10.1777V7.89125C17.3912 4.91375 14.9775 2.5 12 2.5ZM4.6087 7.89125C4.6087 3.80917 7.91788 0.5 12 0.5C16.082 0.5 19.3912 3.80918 19.3912 7.89125V10.1777C19.3912 10.5124 19.4975 10.8684 19.7088 11.288C19.8791 11.6263 20.0838 11.9452 20.3159 12.3068C20.3837 12.4125 20.4539 12.5219 20.5263 12.6364C20.9641 13.3295 21.2173 14.1514 21.2173 15.0293C21.2173 17.188 19.6696 19.0751 17.4851 19.378C15.8215 19.6087 13.6961 19.8479 12 19.8479C10.3038 19.8479 8.17847 19.6087 6.51484 19.378C4.33032 19.0751 2.78265 17.188 2.78265 15.0293C2.78265 14.1514 3.03587 13.3296 3.47366 12.6364C3.54601 12.5219 3.61619 12.4125 3.68402 12.3069C3.91613 11.9452 4.12079 11.6263 4.29112 11.2881C4.50244 10.8684 4.6087 10.5125 4.6087 10.1777V7.89125Z" fill="#4F3422"/>
<path id="Ellipse 33 (Stroke)" fill-rule="evenodd" clip-rule="evenodd" d="M14.8363 20.4428C14.3764 20.137 13.7557 20.262 13.4499 20.7219C13.1366 21.193 12.604 21.5 12 21.5C11.3961 21.5 10.8634 21.193 10.5502 20.7219C10.2444 20.262 9.62366 20.137 9.16376 20.4428C8.70385 20.7486 8.57891 21.3693 8.8847 21.8292C9.5529 22.8342 10.6985 23.5 12 23.5C13.3016 23.5 14.4471 22.8342 15.1153 21.8292C15.4211 21.3693 15.2962 20.7486 14.8363 20.4428Z" fill="#4F3422"/>
</g>
</g>
</svg>
