<svg width="24" height="24" viewBox="0 0 24 24" fill="none" xmlns="http://www.w3.org/2000/svg">
<g clip-path="url(#clip0_213_495)">
<path fill-rule="evenodd" clip-rule="evenodd" d="M2.25 12C2.25 9.41413 3.27723 6.93419 5.10571 5.10571C6.93419 3.27723 9.41413 2.25 12 2.25C14.5859 2.25 17.0658 3.27723 18.8943 5.10571C20.7228 6.93419 21.75 9.41413 21.75 12C21.75 14.5859 20.7228 17.0658 18.8943 18.8943C17.0658 20.7228 14.5859 21.75 12 21.75C9.41413 21.75 6.93419 20.7228 5.10571 18.8943C3.27723 17.0658 2.25 14.5859 2.25 12ZM12 0C8.8174 0 5.76516 1.26428 3.51472 3.51472C1.26428 5.76516 0 8.8174 0 12C0 15.1826 1.26428 18.2349 3.51472 20.4854C5.76516 22.7357 8.8174 24 12 24C15.1826 24 18.2349 22.7357 20.4854 20.4854C22.7357 18.2349 24 15.1826 24 12C24 8.8174 22.7357 5.76516 20.4854 3.51472C18.2349 1.26428 15.1826 0 12 0Z" fill="#4F3422"/>
<mask id="mask0_213_495" style="mask-type:alpha" maskUnits="userSpaceOnUse" x="2" y="2" width="20" height="20">
<circle cx="11.9999" cy="12.2947" r="9.67126" fill="#D9D9D9"/>
</mask>
<g mask="url(#mask0_213_495)">
<path fill-rule="evenodd" clip-rule="evenodd" d="M16.1034 10.3521C16.1034 11.3467 15.7083 12.3005 15.005 13.0038C14.3018 13.7071 13.3479 14.1021 12.3534 14.1021C11.3588 14.1021 10.405 13.7071 9.70173 13.0038C8.99845 12.3005 8.60337 11.3467 8.60337 10.3521C8.60337 9.35759 8.99845 8.40375 9.70173 7.70049C10.405 6.99723 11.3588 6.60215 12.3534 6.60215C13.3479 6.60215 14.3018 6.99723 15.005 7.70049C15.7083 8.40375 16.1034 9.35759 16.1034 10.3521ZM16.1949 14.9616C17.1418 14.1721 17.8225 13.11 18.1446 11.9199C18.4665 10.7297 18.4138 9.46925 17.994 8.31002C17.5741 7.15079 16.8073 6.14904 15.798 5.44106C14.7885 4.73309 13.5855 4.35327 12.3526 4.35327C11.1197 4.35327 9.91669 4.73309 8.9073 5.44106C7.8979 6.14904 7.1311 7.15079 6.71125 8.31002C6.29139 9.46925 6.23883 10.7297 6.56074 11.9199C6.88266 13.11 7.5634 14.1721 8.51037 14.9616C7.03375 15.6597 5.77477 16.7463 4.86822 18.1049C3.96166 19.4636 3.44166 21.0431 3.36387 22.6746C3.35664 22.9686 3.46479 23.2538 3.66519 23.4689C3.86557 23.6841 4.14226 23.8124 4.43602 23.826C4.72977 23.8398 5.01721 23.738 5.2368 23.5424C5.45638 23.3468 5.59066 23.073 5.61087 22.7796C5.69265 21.0464 6.43872 19.4112 7.69423 18.2136C8.94973 17.0159 10.6182 16.3478 12.3534 16.3478C14.0885 16.3478 15.757 17.0159 17.0125 18.2136C18.268 19.4112 19.0141 21.0464 19.0959 22.7796C19.0996 22.9295 19.1331 23.0769 19.1946 23.2136C19.2561 23.3502 19.3443 23.4732 19.4539 23.5752C19.5636 23.6774 19.6926 23.7566 19.8331 23.8082C19.9738 23.8598 20.1234 23.8827 20.2731 23.8757C20.4228 23.8688 20.5695 23.8319 20.7048 23.7674C20.8399 23.7029 20.961 23.6121 21.0606 23.5002C21.1603 23.3883 21.2365 23.2577 21.285 23.1159C21.3336 22.9742 21.3532 22.824 21.3429 22.6746C21.2649 21.0429 20.7447 19.4633 19.8379 18.1046C18.931 16.746 17.6718 15.6595 16.1949 14.9616Z" fill="#4F3422"/>
</g>
</g>
<defs>
<clipPath id="clip0_213_495">
<rect width="24" height="24" fill="white"/>
</clipPath>
</defs>
</svg>
