<svg width="24" height="24" viewBox="0 0 24 24" fill="none" xmlns="http://www.w3.org/2000/svg">
<g id="Icon/24/plus">
<path id="Vector" fill-rule="evenodd" clip-rule="evenodd" d="M12.375 3C12.0766 3 11.7905 3.11853 11.5795 3.32951C11.3685 3.54048 11.25 3.82664 11.25 4.125V10.5H4.875C4.57665 10.5 4.29045 10.6185 4.07955 10.8295C3.8685 11.0405 3.75 11.3266 3.75 11.625C3.75 11.9234 3.8685 12.2095 4.07955 12.4205C4.29045 12.6315 4.57665 12.75 4.875 12.75H11.25V19.125C11.25 19.4233 11.3685 19.7096 11.5795 19.9205C11.7905 20.1315 12.0766 20.25 12.375 20.25C12.6734 20.25 12.9595 20.1315 13.1705 19.9205C13.3815 19.7096 13.5 19.4233 13.5 19.125V12.75H19.875C20.1734 12.75 20.4595 12.6315 20.6705 12.4205C20.8815 12.2095 21 11.9234 21 11.625C21 11.3266 20.8815 11.0405 20.6705 10.8295C20.4595 10.6185 20.1734 10.5 19.875 10.5H13.5V4.125C13.5 3.82664 13.3815 3.54048 13.1705 3.32951C12.9595 3.11853 12.6734 3 12.375 3Z" fill="#4F3422"/>
</g>
</svg>
