<svg width="24" height="24" viewBox="0 0 24 24" fill="none" xmlns="http://www.w3.org/2000/svg">
<g id="Icon/24/Settings">
<path id="Ellipse 33 (Stroke)" fill-rule="evenodd" clip-rule="evenodd" d="M12 10C13.1046 10 14 10.8954 14 12C14 13.1046 13.1046 14 12 14C10.8954 14 10 13.1046 10 12C10 10.8954 10.8954 10 12 10ZM16 12C16 9.79086 14.2091 8 12 8C9.79086 8 8 9.79086 8 12C8 14.2091 9.79086 16 12 16C14.2091 16 16 14.2091 16 12Z" fill="#4F3422"/>
<path id="Subtract (Stroke)" fill-rule="evenodd" clip-rule="evenodd" d="M9.29385 1.3356C10.1606 1.11627 11.0674 1 12 1C12.9326 1 13.8395 1.11628 14.7063 1.33564C15.5188 1.54126 15.9237 2.23766 16.0514 2.78967C16.1724 3.31276 16.5002 3.78286 17.0001 4.07147C17.4598 4.33691 17.9789 4.39927 18.4585 4.28619C19.0098 4.1562 19.8118 4.21088 20.3561 4.84604C21.2369 5.87392 21.9318 7.06705 22.3878 8.37329C22.7007 9.26966 22.2119 10.0578 21.7294 10.4553C21.2823 10.8237 21 11.3785 21 12C21 12.6215 21.2823 13.1763 21.7294 13.5447C22.2119 13.9422 22.7007 14.7303 22.3878 15.6267C21.9318 16.9328 21.237 18.1258 20.3564 19.1536C19.8121 19.7889 19.01 19.8435 18.4586 19.7135C17.9789 19.6004 17.4598 19.6627 17 19.9282C16.5001 20.2168 16.1723 20.687 16.0513 21.2102C15.9236 21.7622 15.5187 22.4588 14.7061 22.6644C13.8393 22.8837 12.9325 23 12 23C11.0675 23 10.1607 22.8837 9.29393 22.6644C8.48129 22.4588 8.07641 21.7623 7.94872 21.2102C7.82772 20.687 7.49997 20.2168 7.00001 19.9282C6.54021 19.6627 6.0211 19.6004 5.54142 19.7135C4.99002 19.8436 4.18788 19.7889 3.64358 19.1537C2.76295 18.1258 2.06812 16.9328 1.61215 15.6267C1.29922 14.7303 1.78807 13.9422 2.27052 13.5447C2.71767 13.1763 3 12.6215 3 12C3 11.3785 2.71767 10.8237 2.27052 10.4553C1.78807 10.0578 1.29922 9.26965 1.61215 8.37327C2.06817 7.06702 2.76311 5.87389 3.64388 4.846C4.18814 4.21083 4.99019 4.15616 5.54154 4.28617C6.02119 4.39928 6.54025 4.33692 7.00001 4.07147C7.49992 3.78285 7.82765 3.31275 7.94869 2.78965C8.07642 2.23763 8.4813 1.54121 9.29385 1.3356ZM9.89568 3.2471C9.65366 4.28506 8.99759 5.22757 8.00001 5.80353C7.08381 6.33249 6.04306 6.45761 5.08902 6.23431C4.42907 7.02439 3.90254 7.92866 3.54324 8.91251C4.43118 9.64456 5 10.7563 5 12C5 13.2437 4.43118 14.3554 3.54324 15.0875C3.9025 16.0712 4.42894 16.9754 5.08877 17.7654C6.04288 17.542 7.08373 17.6671 8.00001 18.1961C8.99771 18.7721 9.65381 19.7148 9.89576 20.7529C10.5698 20.9143 11.2743 21 12 21C12.7257 21 13.4302 20.9143 14.1043 20.7529C14.3462 19.7148 15.0023 18.7721 16 18.1961C16.9163 17.6671 17.9571 17.542 18.9112 17.7654C19.571 16.9754 20.0975 16.0712 20.4567 15.0875C19.5688 14.3554 19 13.2437 19 12C19 10.7563 19.5688 9.64457 20.4567 8.91252C20.0974 7.92868 19.5709 7.02442 18.9109 6.23434C17.9569 6.4576 16.9162 6.33247 16.0001 5.80352C15.0025 5.22758 14.3464 4.28508 14.1044 3.24714C13.4303 3.08571 12.7258 3 12 3C11.2742 3 10.5698 3.0857 9.89568 3.2471Z" fill="#4F3422"/>
</g>
</svg>
