<svg width="24" height="24" viewBox="0 0 24 24" fill="none" xmlns="http://www.w3.org/2000/svg">
<g id="Icon/24/share">
<g id="Share">
<path id="Ellipse 44 (Stroke)" fill-rule="evenodd" clip-rule="evenodd" d="M17.5 3C16.6716 3 16 3.67157 16 4.5C16 5.32843 16.6716 6 17.5 6C18.3284 6 19 5.32843 19 4.5C19 3.67157 18.3284 3 17.5 3ZM14 4.5C14 2.567 15.567 1 17.5 1C19.433 1 21 2.567 21 4.5C21 6.433 19.433 8 17.5 8C15.567 8 14 6.433 14 4.5Z" fill="#4F3422"/>
<path id="Ellipse 46 (Stroke)" fill-rule="evenodd" clip-rule="evenodd" d="M5.5 10C4.67157 10 4 10.6716 4 11.5C4 12.3284 4.67157 13 5.5 13C6.32843 13 7 12.3284 7 11.5C7 10.6716 6.32843 10 5.5 10ZM2 11.5C2 9.567 3.567 8 5.5 8C7.433 8 9 9.567 9 11.5C9 13.433 7.433 15 5.5 15C3.567 15 2 13.433 2 11.5Z" fill="#4F3422"/>
<path id="Line (Stroke)" fill-rule="evenodd" clip-rule="evenodd" d="M15.8682 5.50384C15.5942 5.02433 14.9834 4.85773 14.5039 5.13174L7.50386 9.13174C7.02434 9.40575 6.85775 10.0166 7.13176 10.4961C7.40577 10.9756 8.01662 11.1422 8.49614 10.8682L15.4961 6.86823C15.9757 6.59422 16.1423 5.98336 15.8682 5.50384Z" fill="#4F3422"/>
<path id="Line (Stroke)_2" fill-rule="evenodd" clip-rule="evenodd" d="M6.64251 12.9855C6.92665 12.5119 7.54092 12.3584 8.0145 12.6425L15.5145 17.1425C15.9881 17.4267 16.1416 18.0409 15.8575 18.5145C15.5733 18.9881 14.9591 19.1416 14.4855 18.8575L6.9855 14.3575C6.51192 14.0733 6.35836 13.4591 6.64251 12.9855Z" fill="#4F3422"/>
<path id="Ellipse 45 (Stroke)" fill-rule="evenodd" clip-rule="evenodd" d="M17.5 18C16.6716 18 16 18.6716 16 19.5C16 20.3284 16.6716 21 17.5 21C18.3284 21 19 20.3284 19 19.5C19 18.6716 18.3284 18 17.5 18ZM14 19.5C14 17.567 15.567 16 17.5 16C19.433 16 21 17.567 21 19.5C21 21.433 19.433 23 17.5 23C15.567 23 14 21.433 14 19.5Z" fill="#4F3422"/>
</g>
</g>
</svg>
