<svg width="24" height="24" viewBox="0 0 24 24" fill="none" xmlns="http://www.w3.org/2000/svg">
<g id="Icon/24/Statistics">
<path id="Rectangle 2 (Stroke)" fill-rule="evenodd" clip-rule="evenodd" d="M17 1C20.3137 1 23 3.68629 23 7L23 17C23 20.3137 20.3137 23 17 23L7 23C3.68629 23 0.999999 20.3137 0.999999 17L1 7C1 3.68629 3.68629 0.999999 7 0.999999L17 1ZM21 7C21 4.79086 19.2091 3 17 3L7 3C4.79086 3 3 4.79086 3 7L3 17C3 19.2091 4.79086 21 7 21L17 21C19.2091 21 21 19.2091 21 17L21 7Z" fill="#4F3422"/>
<g id="Frame 513529">
<path id="Line (Stroke)" fill-rule="evenodd" clip-rule="evenodd" d="M8 11.5C8.55228 11.5 9 11.9477 9 12.5L9 19.5C9 20.0523 8.55228 20.5 8 20.5C7.44771 20.5 7 20.0523 7 19.5L7 12.5C7 11.9477 7.44772 11.5 8 11.5Z" fill="#4F3422"/>
<path id="Line (Stroke)_2" fill-rule="evenodd" clip-rule="evenodd" d="M12 15.5C12.5523 15.5 13 15.9477 13 16.5L13 19.5C13 20.0523 12.5523 20.5 12 20.5C11.4477 20.5 11 20.0523 11 19.5L11 16.5C11 15.9477 11.4477 15.5 12 15.5Z" fill="#4F3422"/>
<path id="Line (Stroke)_3" fill-rule="evenodd" clip-rule="evenodd" d="M16 8.5C16.5523 8.5 17 8.94772 17 9.5L17 19.5C17 20.0523 16.5523 20.5 16 20.5C15.4477 20.5 15 20.0523 15 19.5L15 9.5C15 8.94772 15.4477 8.5 16 8.5Z" fill="#4F3422"/>
</g>
</g>
</svg>
