<svg width="24" height="24" viewBox="0 0 24 24" fill="none" xmlns="http://www.w3.org/2000/svg">
<g id="Icon/24/Swap 3">
<g id="Swap 3">
<path id="Vector (Stroke)" fill-rule="evenodd" clip-rule="evenodd" d="M12.3663 5.00972C11.0771 4.94215 9.79437 5.23241 8.65986 5.8484C7.63832 6.40305 6.77281 7.20233 6.13935 8.17218L8.09511 7.72067C8.63324 7.59643 9.17019 7.93196 9.29443 8.4701C9.41866 9.00823 9.08313 9.54518 8.545 9.66941L5.38546 10.3988C4.3092 10.6473 3.2353 9.97623 2.98683 8.89997L2.25742 5.74043C2.13318 5.2023 2.46871 4.66535 3.00684 4.54112C3.54498 4.41688 4.08193 4.75241 4.20616 5.29054L4.57943 6.90741C5.38237 5.73744 6.45269 4.77101 7.70554 4.09077C9.1642 3.29878 10.8135 2.92559 12.471 3.01246C14.1285 3.09933 15.7297 3.64287 17.0976 4.58299C18.4655 5.52311 19.5468 6.82319 20.2219 8.3395C20.4465 8.84403 20.2196 9.43514 19.7151 9.65978C19.2105 9.88441 18.6194 9.65751 18.3948 9.15297C17.8697 7.97362 17.0287 6.96245 15.9648 6.23124C14.9009 5.50004 13.6555 5.07728 12.3663 5.00972ZM18.6145 13.6013C19.6908 13.3528 20.7647 14.0239 21.0131 15.1002L21.7426 18.2597C21.8668 18.7978 21.5313 19.3348 20.9931 19.459C20.455 19.5833 19.918 19.2477 19.7938 18.7096L19.4205 17.0927C18.6176 18.2627 17.5473 19.2291 16.2944 19.9094C14.8358 20.7014 13.1865 21.0745 11.529 20.9877C9.87146 20.9008 8.27024 20.3573 6.90235 19.4172C5.53447 18.477 4.4532 17.1769 3.7781 15.6606C3.55347 15.1561 3.78037 14.565 4.28491 14.3404C4.78945 14.1157 5.38056 14.3426 5.60519 14.8472C6.13027 16.0265 6.97125 17.0377 8.03516 17.7689C9.09908 18.5001 10.3445 18.9229 11.6337 18.9904C12.9228 19.058 14.2056 18.7677 15.3401 18.1517C16.3617 17.5971 17.2272 16.7978 17.8606 15.828L15.9049 16.2795C15.3667 16.4037 14.8298 16.0682 14.7055 15.53C14.5813 14.9919 14.9168 14.455 15.455 14.3307L18.6145 13.6013Z" fill="#4F3422"/>
</g>
</g>
</svg>
