<svg width="24" height="24" viewBox="0 0 24 24" fill="none" xmlns="http://www.w3.org/2000/svg">
<g id="Icon/24/Time Circle">
<g id="Time Circle">
<path id="Ellipse 32 (Stroke)" fill-rule="evenodd" clip-rule="evenodd" d="M12 3C7.02944 3 3 7.02944 3 12C3 16.9706 7.02944 21 12 21C16.9706 21 21 16.9706 21 12C21 7.02944 16.9706 3 12 3ZM1 12C1 5.92487 5.92487 1 12 1C18.0751 1 23 5.92487 23 12C23 18.0751 18.0751 23 12 23C5.92487 23 1 18.0751 1 12Z" fill="#4F3422"/>
<path id="Vector 132 (Stroke)" fill-rule="evenodd" clip-rule="evenodd" d="M12 7C12.5523 7 13 7.44772 13 8V11.4648L15.5547 13.1679C16.0142 13.4743 16.1384 14.0952 15.8321 14.5547C15.5257 15.0142 14.9048 15.1384 14.4453 14.8321L11.6679 12.9805C11.2507 12.7023 11 12.2339 11 11.7324V8C11 7.44772 11.4477 7 12 7Z" fill="#4F3422"/>
</g>
</g>
</svg>
