<svg width="24" height="24" viewBox="0 0 24 24" fill="none" xmlns="http://www.w3.org/2000/svg">
<g id="Icon/24/Time Circle">
<g id="Time Circle">
<path id="Ellipse 32 (Stroke)" fill-rule="evenodd" clip-rule="evenodd" d="M12 3C9.32061 3 6.91568 4.16959 5.26551 6.02935C4.89896 6.44246 4.26692 6.4802 3.85381 6.11365C3.4407 5.7471 3.40296 5.11506 3.76951 4.70195C5.78316 2.43255 8.72492 1 12 1C18.0751 1 23 5.92487 23 12C23 18.0751 18.0751 23 12 23C5.92487 23 1 18.0751 1 12C1 11.4477 1.44772 11 2 11C2.55228 11 3 11.4477 3 12C3 16.9706 7.02944 21 12 21C16.9706 21 21 16.9706 21 12C21 7.02944 16.9706 3 12 3Z" fill="#4F3422"/>
<path id="Vector 132 (Stroke)" fill-rule="evenodd" clip-rule="evenodd" d="M12 7C12.5523 7 13 7.44772 13 8V11.4648L15.5547 13.1679C16.0142 13.4743 16.1384 14.0952 15.8321 14.5547C15.5257 15.0142 14.9048 15.1384 14.4453 14.8321L11.6679 12.9805C11.2507 12.7023 11 12.2339 11 11.7324V8C11 7.44772 11.4477 7 12 7Z" fill="#4F3422"/>
</g>
<path id="Vector 143 (Stroke)" fill-rule="evenodd" clip-rule="evenodd" d="M2.60384 1.91948C3.15289 1.8598 3.64636 2.25652 3.70603 2.80557L4.06515 6.10974L7.34055 5.54567C7.88483 5.45194 8.40203 5.81718 8.49576 6.36145C8.58949 6.90572 8.22426 7.42293 7.67998 7.51666L3.35571 8.26135C3.08369 8.30819 2.80441 8.24052 2.584 8.07436C2.3636 7.90819 2.22168 7.65831 2.19185 7.38391L1.71774 3.02167C1.65807 2.47262 2.05478 1.97915 2.60384 1.91948Z" fill="#4F3422"/>
</g>
</svg>
