<svg width="24" height="24" viewBox="0 0 24 24" fill="none" xmlns="http://www.w3.org/2000/svg">
<g id="Icon/24/Trash can">
<g id="Trash can">
<path id="Rectangle 74 (Stroke)" fill-rule="evenodd" clip-rule="evenodd" d="M4.25061 9.33418C2.91127 7.5484 4.18547 5 6.4177 5H17.5823C19.8145 5 21.0887 7.5484 19.7493 9.33418C19.2629 9.98274 19 10.7716 19 11.5823V18C19 20.7614 16.7614 23 14 23H9.99998C7.23855 23 4.99998 20.7614 4.99998 18V11.5823C4.99998 10.7716 4.73703 9.98274 4.25061 9.33418ZM6.4177 7C5.83356 7 5.50013 7.66687 5.85061 8.13418C6.59668 9.12893 6.99998 10.3388 6.99998 11.5823V18C6.99998 19.6569 8.34312 21 9.99998 21H14C15.6568 21 17 19.6569 17 18V11.5823C17 10.3388 17.4033 9.12893 18.1493 8.13418C18.4998 7.66687 18.1664 7 17.5823 7H6.4177Z" fill="#4F3422"/>
<path id="Line (Stroke)" fill-rule="evenodd" clip-rule="evenodd" d="M14 10C14.5523 10 15 10.4477 15 11L15 17C15 17.5523 14.5523 18 14 18C13.4477 18 13 17.5523 13 17L13 11C13 10.4477 13.4477 10 14 10Z" fill="#4F3422"/>
<path id="Line (Stroke)_2" fill-rule="evenodd" clip-rule="evenodd" d="M10 10C10.5523 10 11 10.4477 11 11L11 17C11 17.5523 10.5523 18 10 18C9.44771 18 9 17.5523 9 17L9 11C9 10.4477 9.44772 10 10 10Z" fill="#4F3422"/>
<path id="Rectangle 4 (Stroke)" fill-rule="evenodd" clip-rule="evenodd" d="M7.59543 4.05132C8.00378 2.82629 9.15019 2 10.4415 2H13.5584C14.8497 2 15.9962 2.82629 16.4045 4.05132L16.9486 5.68377C17.1233 6.20772 16.8401 6.77404 16.3162 6.94868C15.7922 7.12333 15.2259 6.84017 15.0513 6.31623L14.5071 4.68377C14.371 4.27543 13.9889 4 13.5584 4H10.4415C10.0111 4 9.62892 4.27543 9.4928 4.68377L8.94865 6.31623C8.774 6.84017 8.20768 7.12333 7.68374 6.94868C7.1598 6.77404 6.87664 6.20772 7.05128 5.68377L7.59543 4.05132Z" fill="#4F3422"/>
</g>
</g>
</svg>
