<svg width="24" height="24" viewBox="0 0 24 24" fill="none" xmlns="http://www.w3.org/2000/svg">
<g id="Icon/24/users">
<g id="Users">
<g id="Group 222">
<path id="Ellipse 33 (Stroke)" fill-rule="evenodd" clip-rule="evenodd" d="M12.2127 5.68004C13.5405 5.68004 14.617 6.75646 14.617 8.08428C14.617 9.41211 13.5405 10.4885 12.2127 10.4885C10.8849 10.4885 9.80847 9.41211 9.80847 8.08428C9.80847 6.75646 10.8849 5.68004 12.2127 5.68004ZM16.6169 8.08428C16.6169 5.65189 14.6451 3.68005 12.2127 3.68005C9.78032 3.68005 7.80848 5.65189 7.80848 8.08428C7.80848 10.5167 9.78032 12.4885 12.2127 12.4885C14.6451 12.4885 16.6169 10.5167 16.6169 8.08428Z" fill="#4F3422"/>
<path id="Rectangle 2 (Stroke)" fill-rule="evenodd" clip-rule="evenodd" d="M16.6839 15.8495C13.7926 14.8169 10.6329 14.8169 7.7415 15.8495C7.44993 15.9537 7.2553 16.2299 7.2553 16.5395V17.659C7.2553 18.0611 7.61138 18.3699 8.00937 18.313L8.34292 18.2654C10.9098 17.8987 13.5157 17.8987 16.0825 18.2654L16.4161 18.313C16.8141 18.3699 17.1701 18.0611 17.1701 17.659V16.5395C17.1701 16.2299 16.9755 15.9537 16.6839 15.8495ZM7.06883 13.9661C10.3952 12.7781 14.0302 12.7781 17.3566 13.9661C18.4442 14.3545 19.1701 15.3846 19.1701 16.5395V17.659C19.1701 19.2782 17.7361 20.5219 16.1332 20.2929L15.7997 20.2453C13.4204 19.9054 11.005 19.9054 8.62576 20.2453L8.29221 20.2929C6.68936 20.5219 5.25531 19.2782 5.25531 17.659V16.5395C5.25531 15.3846 5.98128 14.3545 7.06883 13.9661Z" fill="#4F3422"/>
</g>
<g id="Group 223">
<path id="Ellipse 33 (Stroke)_2" fill-rule="evenodd" clip-rule="evenodd" d="M17.3193 7.23308C18.2442 7.23308 18.994 7.9829 18.994 8.90785C18.994 9.83279 18.2442 10.5826 17.3193 10.5826C16.767 10.5826 16.3193 11.0303 16.3193 11.5826C16.3193 12.1349 16.767 12.5826 17.3193 12.5826C19.3488 12.5826 20.994 10.9374 20.994 8.90785C20.994 6.87834 19.3488 5.23309 17.3193 5.23309C16.767 5.23309 16.3193 5.68081 16.3193 6.23309C16.3193 6.78537 16.767 7.23308 17.3193 7.23308Z" fill="#4F3422"/>
<path id="Rectangle 2 (Stroke)_2" fill-rule="evenodd" clip-rule="evenodd" d="M18.465 13.6285C18.5696 13.0863 19.0941 12.7315 19.6363 12.8361C20.2437 12.9533 20.8444 13.117 21.4329 13.3272C22.3727 13.6628 23.0001 14.553 23.0001 15.5509V16.4306C23.0001 17.8332 21.7578 18.9106 20.3693 18.7122L20.5092 17.7332L20.3693 18.7122L20.1073 18.6748C19.5605 18.5967 19.1806 18.0901 19.2587 17.5434C19.3368 16.9967 19.8434 16.6168 20.3901 16.6949L20.6522 16.7323C20.8358 16.7586 21.0001 16.6161 21.0001 16.4306V15.5509C21.0001 15.3982 20.9041 15.262 20.7603 15.2107C20.2679 15.0348 19.7655 14.8979 19.2575 14.7999C18.7152 14.6953 18.3604 14.1708 18.465 13.6285Z" fill="#4F3422"/>
</g>
<g id="Group 224">
<path id="Ellipse 33 (Stroke)_3" fill-rule="evenodd" clip-rule="evenodd" d="M6.68073 7.23308C5.75579 7.23308 5.00597 7.9829 5.00597 8.90785C5.00597 9.83279 5.75579 10.5826 6.68073 10.5826C7.23301 10.5826 7.68073 11.0303 7.68073 11.5826C7.68073 12.1349 7.23301 12.5826 6.68073 12.5826C4.65122 12.5826 3.00598 10.9374 3.00598 8.90785C3.00598 6.87834 4.65122 5.23309 6.68073 5.23309C7.23301 5.23309 7.68073 5.68081 7.68073 6.23309C7.68073 6.78537 7.23301 7.23308 6.68073 7.23308Z" fill="#4F3422"/>
<path id="Rectangle 2 (Stroke)_3" fill-rule="evenodd" clip-rule="evenodd" d="M5.53499 13.6285C5.43036 13.0863 4.90594 12.7315 4.36366 12.8361C3.75625 12.9533 3.15559 13.117 2.56705 13.3272C1.62727 13.6628 0.999933 14.553 0.999933 15.5509V16.4306C0.999933 17.8332 2.24218 18.9106 3.63066 18.7122L3.4908 17.7332L3.63066 18.7122L3.89273 18.6748C4.43946 18.5967 4.81936 18.0901 4.74126 17.5434C4.66315 16.9967 4.15662 16.6168 3.60989 16.6949L3.34782 16.7323C3.1642 16.7586 2.99992 16.6161 2.99992 16.4306V15.5509C2.99992 15.3982 3.09592 15.262 3.23972 15.2107C3.73207 15.0348 4.2345 14.8979 4.74255 14.7999C5.28483 14.6953 5.63962 14.1708 5.53499 13.6285Z" fill="#4F3422"/>
</g>
</g>
</g>
</svg>
