<svg width="24" height="24" viewBox="0 0 24 24" fill="none" xmlns="http://www.w3.org/2000/svg">
<g id="Icon/24/Zoom out">
<g id="Zoom out">
<path id="Ellipse (Stroke)" fill-rule="evenodd" clip-rule="evenodd" d="M11 3.99994C7.13401 3.99994 4 7.13395 4 10.9999C4 14.8659 7.13401 17.9999 11 17.9999C14.866 17.9999 18 14.8659 18 10.9999C18 7.13395 14.866 3.99994 11 3.99994ZM2 10.9999C2 6.02938 6.02944 1.99994 11 1.99994C15.9706 1.99994 20 6.02938 20 10.9999C20 15.9705 15.9706 19.9999 11 19.9999C6.02944 19.9999 2 15.9705 2 10.9999Z" fill="#4F3422"/>
<path id="Line (Stroke)" fill-rule="evenodd" clip-rule="evenodd" d="M15 10.9999C15 11.5522 14.5523 11.9999 14 11.9999H8C7.44772 11.9999 7 11.5522 7 10.9999C7 10.4477 7.44772 9.99994 8 9.99994H14C14.5523 9.99994 15 10.4477 15 10.9999Z" fill="#4F3422"/>
<path id="Line (Stroke)_2" fill-rule="evenodd" clip-rule="evenodd" d="M15.7929 16.2508C16.1834 15.8603 16.8166 15.8603 17.2071 16.2508L22.2071 21.2508C22.5976 21.6414 22.5976 22.2745 22.2071 22.6651C21.8166 23.0556 21.1834 23.0556 20.7929 22.665L15.7929 17.665C15.4024 17.2745 15.4024 16.6413 15.7929 16.2508Z" fill="#4F3422"/>
</g>
</g>
</svg>
